<svg width="50" height="50" viewBox="0 0 50 50" fill="none" xmlns="http://www.w3.org/2000/svg">
<path d="M42.8113 22.4325C42.7259 22.4324 42.6413 22.4161 42.5619 22.3845L37.4674 20.3575C37.3443 20.3086 37.2382 20.2247 37.1624 20.1161C37.0867 20.0075 37.0444 19.8791 37.0411 19.7467C37.0377 19.6143 37.0733 19.4838 37.1434 19.3715C37.2136 19.2592 37.3152 19.17 37.4356 19.1149C37.9365 18.8844 38.3299 18.4706 38.5349 17.9588C38.639 17.6968 38.6903 17.4168 38.6861 17.1349C38.6818 16.853 38.6221 16.5746 38.5102 16.3158C38.3983 16.0571 38.2365 15.8229 38.034 15.6266C37.8315 15.4304 37.5924 15.276 37.3302 15.1723C36.8013 14.962 36.2106 14.97 35.6877 15.1947C35.1647 15.4195 34.7523 15.8425 34.541 16.371C34.4376 16.6229 34.3849 16.8928 34.3858 17.1651C34.3867 17.4374 34.4413 17.7069 34.5464 17.9581C34.5988 18.0809 34.6137 18.2163 34.5892 18.3475C34.5647 18.4787 34.5019 18.5996 34.4088 18.6952C34.3156 18.7907 34.1963 18.8565 34.0658 18.8843C33.9353 18.9121 33.7995 18.9007 33.6755 18.8514L28.5613 16.819C28.4787 16.7862 28.4034 16.7375 28.3397 16.6756C28.276 16.6137 28.2251 16.5398 28.1899 16.4582C28.1548 16.3766 28.1361 16.2889 28.1349 16.2001C28.1337 16.1113 28.15 16.0231 28.1829 15.9406L29.7586 11.9777C29.3187 11.9753 28.8832 11.8902 28.4748 11.7271C27.9982 11.5357 27.5696 11.2417 27.2194 10.866C26.8693 10.4904 26.6061 10.0422 26.4487 9.55336C26.2913 9.06452 26.2434 8.54701 26.3085 8.03759C26.3736 7.52817 26.5501 7.03933 26.8254 6.6058C27.1007 6.17227 27.4681 5.80468 27.9015 5.52914C28.3349 5.25359 28.8236 5.07686 29.333 5.0115C29.8424 4.94613 30.3599 4.99373 30.8489 5.15091C31.3378 5.3081 31.7861 5.57101 32.1619 5.92098L33.7417 1.95274C33.7745 1.87023 33.8233 1.795 33.8852 1.73135C33.9471 1.6677 34.021 1.61689 34.1026 1.58181C34.1842 1.54673 34.2718 1.52808 34.3606 1.52691C34.4494 1.52575 34.5376 1.5421 34.6201 1.57504L47.3849 6.64868C47.8784 6.84557 48.2738 7.23008 48.4843 7.71796C48.6948 8.20583 48.7033 8.75726 48.5079 9.25139L43.4403 22.0021C43.391 22.1288 43.3045 22.2376 43.1923 22.3144C43.08 22.3912 42.9473 22.4324 42.8113 22.4325ZM39.0951 19.5527L42.4322 20.8784L47.2505 8.75544C47.3119 8.59433 47.3082 8.41558 47.2399 8.25722C47.1716 8.09886 47.0443 7.97338 46.8849 7.90747L34.7484 3.08044L32.9728 7.55679C32.9238 7.68029 32.8395 7.78663 32.7305 7.8625C32.6215 7.93837 32.4925 7.98041 32.3596 7.98336C32.2268 7.98632 32.0961 7.95006 31.9838 7.87912C31.8715 7.80817 31.7826 7.7057 31.7282 7.5845C31.5535 7.20174 31.2701 6.87877 30.9134 6.65571C30.5566 6.43266 30.1422 6.31936 29.7216 6.32989C29.301 6.34043 28.8928 6.47433 28.5476 6.71496C28.2025 6.9556 27.9357 7.29235 27.7804 7.68337C27.625 8.07439 27.588 8.50243 27.674 8.9143C27.7599 9.32617 27.965 9.7037 28.2637 9.99998C28.5625 10.2963 28.9417 10.4982 29.3542 10.5808C29.7668 10.6633 30.1945 10.6228 30.5842 10.4642C30.7069 10.4137 30.8418 10.4004 30.972 10.4261C31.1021 10.4517 31.2219 10.5151 31.3163 10.6083C31.4107 10.7016 31.4755 10.8205 31.5028 10.9504C31.53 11.0802 31.5184 11.2152 31.4694 11.3385L29.6883 15.8108L33.0342 17.1413C33.0365 16.5705 33.1782 16.0089 33.447 15.5053C33.7158 15.0018 34.1035 14.5715 34.5765 14.2519C35.0495 13.9324 35.5933 13.7332 36.1608 13.6717C36.7283 13.6102 37.3022 13.6883 37.8326 13.8991C38.3631 14.11 38.834 14.4472 39.2044 14.8815C39.5748 15.3158 39.8335 15.834 39.958 16.3911C40.0825 16.9481 40.069 17.5272 39.9187 18.0778C39.7684 18.6285 39.4859 19.1341 39.0957 19.5507L39.0951 19.5527Z" fill="#FF5E00"/>
<path d="M40.4727 29.2372C40.3839 29.2376 40.296 29.2205 40.2139 29.1869C40.1317 29.1533 40.057 29.1039 39.994 29.0415C39.931 28.979 39.8809 28.9047 39.8465 28.8229C39.8122 28.7411 39.7944 28.6533 39.794 28.5646C39.7936 28.4758 39.8106 28.3879 39.8442 28.3058C39.8778 28.2236 39.9272 28.1489 39.9897 28.0859C40.0522 28.0229 40.1264 27.9728 40.2083 27.9385C40.2901 27.9041 40.3779 27.8863 40.4666 27.8859H40.4727C40.6519 27.8859 40.8237 27.9571 40.9504 28.0838C41.0772 28.2105 41.1483 28.3823 41.1483 28.5615C41.1483 28.7407 41.0772 28.9126 40.9504 29.0393C40.8237 29.166 40.6519 29.2372 40.4727 29.2372Z" fill="black"/>
<path d="M33.4652 29.2372C33.286 29.2381 33.1138 29.1678 32.9864 29.0417C32.8591 28.9156 32.787 28.7441 32.7861 28.5649C32.7852 28.3857 32.8556 28.2135 32.9817 28.0862C33.1077 27.9588 33.2792 27.8868 33.4584 27.8859H33.4652C33.6444 27.8859 33.8163 27.9571 33.943 28.0838C34.0697 28.2105 34.1409 28.3823 34.1409 28.5615C34.1409 28.7407 34.0697 28.9126 33.943 29.0393C33.8163 29.166 33.6444 29.2372 33.4652 29.2372Z" fill="black"/>
<path d="M33.4589 29.2405C33.2804 29.2405 33.1091 29.1699 32.9825 29.044C32.8559 28.9182 32.7843 28.7474 32.7832 28.5689C32.7824 28.4469 32.8147 28.3269 32.8766 28.2218C32.9384 28.1166 33.0276 28.0302 33.1347 27.9717C33.2417 27.9131 33.3626 27.8847 33.4845 27.8893C33.6064 27.8939 33.7248 27.9315 33.8271 27.998C33.9294 28.0644 34.0118 28.1574 34.0655 28.2669C34.1192 28.3765 34.1423 28.4985 34.1323 28.6201C34.1222 28.7417 34.0794 28.8583 34.0085 28.9575C33.9375 29.0568 33.841 29.1349 33.7292 29.1837C33.6441 29.2214 33.552 29.2408 33.4589 29.2405Z" fill="black"/>
<path d="M38.763 48.4729H3.73467C3.10363 48.4731 2.49829 48.2229 2.05151 47.7773C1.60472 47.3316 1.35299 46.7269 1.35156 46.0959V11.0614C1.35407 10.4313 1.60636 9.82797 2.0531 9.38363C2.49985 8.93929 3.10458 8.69027 3.73467 8.69116H21.2421C21.4213 8.69116 21.5932 8.76235 21.7199 8.88907C21.8466 9.01578 21.9178 9.18764 21.9178 9.36684V16.3722C21.9183 16.5055 21.8794 16.636 21.8059 16.7472C21.7325 16.8584 21.6278 16.9454 21.505 16.9973C21.3822 17.0492 21.2468 17.0635 21.1159 17.0386C20.985 17.0137 20.8643 16.9507 20.7691 16.8574C20.2257 16.3317 19.4982 16.0395 18.7421 16.0432C17.9665 16.0432 17.2227 16.3513 16.6743 16.8997C16.1259 17.4481 15.8178 18.1919 15.8178 18.9675C15.8178 19.7431 16.1259 20.4869 16.6743 21.0353C17.2227 21.5837 17.9665 21.8918 18.7421 21.8918C19.4977 21.8964 20.2251 21.6055 20.7691 21.081C20.8643 20.9877 20.985 20.9247 21.1159 20.8998C21.2468 20.8749 21.3822 20.8893 21.505 20.9411C21.6278 20.993 21.7325 21.08 21.8059 21.1912C21.8794 21.3024 21.9183 21.4329 21.9178 21.5662V27.8891H26.9786C26.6724 27.2364 26.5359 26.5169 26.5819 25.7974C26.6278 25.0778 26.8546 24.3815 27.2413 23.773C27.6281 23.1645 28.1621 22.6634 28.794 22.3163C29.426 21.9691 30.1353 21.7871 30.8563 21.7871C31.5773 21.7871 32.2866 21.9691 32.9185 22.3163C33.5505 22.6634 34.0845 23.1645 34.4712 23.773C34.8579 24.3815 35.0848 25.0778 35.1307 25.7974C35.1766 26.5169 35.0402 27.2364 34.734 27.8891H40.4576C40.6368 27.8891 40.8087 27.9603 40.9354 28.087C41.0621 28.2138 41.1333 28.3856 41.1333 28.5648V46.0959C41.1337 46.7253 40.8843 47.3291 40.4399 47.7747C39.9955 48.2204 39.3924 48.4715 38.763 48.4729ZM3.73467 10.0425C3.46287 10.0413 3.20165 10.1478 3.00825 10.3388C2.81486 10.5298 2.70506 10.7896 2.70291 11.0614V46.0959C2.70417 46.3686 2.81346 46.6297 3.00686 46.8219C3.20025 47.0142 3.46197 47.1219 3.73467 47.1216H38.763C39.0341 47.1203 39.2935 47.0116 39.4845 46.8194C39.6755 46.6271 39.7825 46.3669 39.782 46.0959V29.2371H33.4657C33.3335 29.237 33.2041 29.198 33.0938 29.1251C32.9834 29.0522 32.8969 28.9484 32.8449 28.8268C32.793 28.7051 32.7779 28.5708 32.8015 28.4407C32.8252 28.3105 32.8865 28.1902 32.9779 28.0945C33.3067 27.7482 33.5456 27.3267 33.6738 26.8667C33.8021 26.4067 33.8158 25.9224 33.7136 25.4559C33.6115 24.9895 33.3967 24.5551 33.088 24.1908C32.7794 23.8265 32.3861 23.5433 31.9428 23.366C31.4994 23.1887 31.0194 23.1227 30.5446 23.1737C30.0698 23.2247 29.6148 23.3912 29.2192 23.6586C28.8236 23.926 28.4995 24.2863 28.2752 24.7078C28.051 25.1294 27.9333 25.5995 27.9326 26.077C27.926 26.8278 28.2176 27.5505 28.7435 28.0864C28.8365 28.1813 28.8994 28.3015 28.9245 28.432C28.9495 28.5625 28.9356 28.6975 28.8843 28.8201C28.833 28.9427 28.7467 29.0475 28.6362 29.1213C28.5257 29.1951 28.3959 29.2347 28.263 29.2351H21.2421C21.0629 29.2351 20.891 29.1639 20.7643 29.0372C20.6376 28.9105 20.5664 28.7386 20.5664 28.5594V22.8378C19.9148 23.1426 19.1969 23.278 18.479 23.2316C17.7612 23.1852 17.0666 22.9584 16.4597 22.5722C15.8528 22.1861 15.3531 21.653 15.0069 21.0225C14.6608 20.3919 14.4793 19.6842 14.4793 18.9648C14.4793 18.2455 14.6608 17.5377 15.0069 16.9072C15.3531 16.2766 15.8528 15.7436 16.4597 15.3574C17.0666 14.9713 17.7612 14.7445 18.479 14.698C19.1969 14.6516 19.9148 14.7871 20.5664 15.0918V10.0425H3.73467Z" fill="black"/>
<path d="M21.2489 36.2534C21.0697 36.2534 20.8979 36.1822 20.7712 36.0555C20.6444 35.9288 20.5733 35.7569 20.5733 35.5777V28.5689C20.5728 28.4802 20.5898 28.3922 20.6233 28.3101C20.6568 28.2279 20.7061 28.1532 20.7685 28.0901C20.8945 27.9627 21.066 27.8905 21.2452 27.8895C21.4244 27.8886 21.5967 27.9588 21.7241 28.0848C21.8515 28.2108 21.9236 28.3823 21.9246 28.5615V35.5743C21.925 35.6633 21.9079 35.7516 21.8741 35.8339C21.8404 35.9163 21.7907 35.9912 21.7279 36.0543C21.6651 36.1174 21.5905 36.1675 21.5083 36.2016C21.4261 36.2358 21.3379 36.2534 21.2489 36.2534Z" fill="black"/>
<path d="M21.2528 48.4459C21.0736 48.4459 20.9018 48.3747 20.775 48.248C20.6483 48.1213 20.5771 47.9495 20.5771 47.7703V40.754C20.5771 40.5748 20.6483 40.403 20.775 40.2763C20.9018 40.1496 21.0736 40.0784 21.2528 40.0784C21.432 40.0784 21.6039 40.1496 21.7306 40.2763C21.8573 40.403 21.9285 40.5748 21.9285 40.754V47.7703C21.9285 47.9495 21.8573 48.1213 21.7306 48.248C21.6039 48.3747 21.432 48.4459 21.2528 48.4459Z" fill="black"/>
<path d="M21.2486 29.2372H14.2567C14.0775 29.2372 13.9057 29.166 13.779 29.0393C13.6522 28.9126 13.5811 28.7407 13.5811 28.5615C13.5811 28.3823 13.6522 28.2105 13.779 28.0838C13.9057 27.9571 14.0775 27.8859 14.2567 27.8859H21.2486C21.4278 27.8859 21.5997 27.9571 21.7264 28.0838C21.8531 28.2105 21.9243 28.3823 21.9243 28.5615C21.9243 28.7407 21.8531 28.9126 21.7264 29.0393C21.5997 29.166 21.4278 29.2372 21.2486 29.2372Z" fill="black"/>
<path d="M9.06404 29.2411H2.04579C1.86659 29.2411 1.69473 29.1699 1.56802 29.0432C1.4413 28.9165 1.37012 28.7446 1.37012 28.5654C1.37012 28.3862 1.4413 28.2144 1.56802 28.0877C1.69473 27.961 1.86659 27.8898 2.04579 27.8898H9.06404C9.24324 27.8898 9.4151 27.961 9.54181 28.0877C9.66853 28.2144 9.73971 28.3862 9.73971 28.5654C9.73971 28.7446 9.66853 28.9165 9.54181 29.0432C9.4151 29.1699 9.24324 29.2411 9.06404 29.2411Z" fill="black"/>
<path d="M11.6466 35.3439C10.8068 35.3441 9.98549 35.0968 9.28541 34.6329C8.58533 34.169 8.03751 33.5091 7.71041 32.7355C7.38331 31.962 7.29145 31.1093 7.4463 30.2838C7.60115 29.4584 7.99585 28.6969 8.58106 28.0945C8.70643 27.9682 8.87661 27.8964 9.05462 27.8947C9.23263 27.8931 9.40409 27.9618 9.53173 28.0859C9.65938 28.21 9.7329 28.3794 9.73632 28.5574C9.73973 28.7354 9.67277 28.9075 9.54998 29.0364C9.15003 29.4482 8.88028 29.9687 8.77441 30.5329C8.66854 31.0971 8.73126 31.6799 8.95472 32.2087C9.17819 32.7374 9.5525 33.1886 10.0309 33.5059C10.5093 33.8231 11.0705 33.9924 11.6446 33.9925C12.4207 33.9925 13.165 33.6846 13.7143 33.1363C14.2636 32.5881 14.5729 31.8443 14.5743 31.0682C14.5797 30.3112 14.2859 29.5826 13.7567 29.0412C13.6904 28.9788 13.6373 28.9037 13.6007 28.8204C13.5641 28.7371 13.5447 28.6472 13.5437 28.5562C13.5427 28.4651 13.5601 28.3748 13.5949 28.2907C13.6297 28.2066 13.6811 28.1303 13.746 28.0666C13.811 28.0028 13.8881 27.9528 13.9729 27.9196C14.0577 27.8864 14.1482 27.8707 14.2392 27.8733C14.3302 27.876 14.4197 27.897 14.5024 27.9352C14.5851 27.9733 14.6592 28.0277 14.7202 28.0952C15.4987 28.8896 15.932 29.9593 15.9257 31.0716C15.9228 32.2049 15.4708 33.291 14.6688 34.0918C13.8667 34.8926 12.78 35.3428 11.6466 35.3439Z" fill="black"/>
<path d="M23.7569 42.4526C22.6466 42.453 21.5799 42.02 20.7839 41.2459C20.7174 41.185 20.6637 41.1113 20.6261 41.0294C20.5884 40.9474 20.5676 40.8587 20.5648 40.7685C20.562 40.6783 20.5773 40.5885 20.6097 40.5043C20.6422 40.4201 20.6912 40.3433 20.7538 40.2784C20.8164 40.2135 20.8914 40.1617 20.9744 40.1262C21.0573 40.0908 21.1466 40.0723 21.2368 40.0718C21.327 40.0714 21.4164 40.089 21.4997 40.1236C21.583 40.1583 21.6585 40.2093 21.7218 40.2736C22.1336 40.6702 22.6527 40.9373 23.2148 41.0417C23.7769 41.1462 24.3573 41.0834 24.8841 40.8612C25.4109 40.639 25.8609 40.267 26.1784 39.7915C26.4959 39.316 26.6668 38.7578 26.6701 38.1861C26.6734 37.6143 26.5089 37.0542 26.1969 36.5751C25.8849 36.096 25.4392 35.7189 24.915 35.4906C24.3908 35.2624 23.8112 35.1929 23.2479 35.2909C22.6846 35.3889 22.1624 35.65 21.7461 36.0418C21.6537 36.1405 21.5338 36.2093 21.4019 36.2391C21.27 36.2689 21.1322 36.2585 21.0063 36.2091C20.8804 36.1598 20.7722 36.0738 20.6957 35.9623C20.6192 35.8508 20.5779 35.7189 20.5772 35.5837V35.5776C20.5773 35.4869 20.5956 35.3972 20.6311 35.3137C20.6667 35.2302 20.7186 35.1548 20.7839 35.0918C21.2882 34.6061 21.9039 34.2515 22.5771 34.0592C23.2503 33.8668 23.9604 33.8426 24.6451 33.9886C25.3298 34.1347 25.9683 34.4465 26.5044 34.8967C27.0406 35.347 27.4581 35.9219 27.7203 36.5711C27.9825 37.2203 28.0814 37.9239 28.0083 38.6202C27.9352 39.3165 27.6924 39.9842 27.3012 40.5648C26.9099 41.1454 26.3822 41.6212 25.7642 41.9503C25.1463 42.2795 24.457 42.4519 23.7569 42.4526Z" fill="black"/>
</svg>
