<svg width="44" height="44" viewBox="0 0 44 44" fill="none" xmlns="http://www.w3.org/2000/svg">
<path d="M25.8672 13.4062H19.4219C18.9473 13.4062 18.5625 13.7911 18.5625 14.2656V21.1406H16.8438C16.3692 21.1406 15.9844 21.5255 15.9844 22C15.9844 22.4745 16.3692 22.8594 16.8438 22.8594H18.5625V26.2969H16.8438C16.3692 26.2969 15.9844 26.6817 15.9844 27.1562C15.9844 27.6308 16.3692 28.0156 16.8438 28.0156H18.5625V32.3125C18.5625 32.787 18.9473 33.1719 19.4219 33.1719C19.8964 33.1719 20.2813 32.787 20.2813 32.3125V28.0156H27.1563C27.6308 28.0156 28.0156 27.6308 28.0156 27.1562C28.0156 26.6817 27.6308 26.2969 27.1563 26.2969H20.2813V22.8594H25.8672C28.9508 22.8594 30.5641 20.4806 30.5641 18.1309C30.5641 15.783 28.9508 13.4062 25.8672 13.4062ZM25.8672 21.1406H20.2813V15.125H25.8672C26.7994 15.125 27.5719 15.442 28.1013 16.042C28.5741 16.5779 28.8454 17.3393 28.8454 18.1309C28.8454 19.629 27.9244 21.1406 25.8672 21.1406Z" fill="#FF5E00"/>
<path d="M22 5.15625C12.7123 5.15625 5.15625 12.7123 5.15625 22C5.15625 31.2877 12.7123 38.8438 22 38.8438C31.2877 38.8438 38.8438 31.2877 38.8438 22C38.8438 12.7123 31.2877 5.15625 22 5.15625ZM22 37.125C13.66 37.125 6.875 30.34 6.875 22C6.875 13.66 13.66 6.875 22 6.875C30.34 6.875 37.125 13.66 37.125 22C37.125 30.34 30.34 37.125 22 37.125Z" fill="black"/>
<path d="M36.9531 37.8125C37.4277 37.8125 37.8125 37.4277 37.8125 36.9531C37.8125 36.4785 37.4277 36.0938 36.9531 36.0938C36.4785 36.0938 36.0938 36.4785 36.0938 36.9531C36.0938 37.4277 36.4785 37.8125 36.9531 37.8125Z" fill="black"/>
<path d="M22 0C9.83288 0 0 9.8297 0 22C0 34.1671 9.8297 44 22 44C26.4828 44 30.7945 42.6628 34.4688 40.1331C34.8597 39.8639 34.9583 39.3289 34.6892 38.9379C34.42 38.547 33.8849 38.4484 33.4941 38.7175C30.1078 41.0489 26.1332 42.2812 22 42.2812C10.8169 42.2812 1.71875 33.1831 1.71875 22C1.71875 10.8169 10.8169 1.71875 22 1.71875C33.1831 1.71875 42.2812 10.8169 42.2812 22C42.2812 26.1331 41.0489 30.1077 38.7174 33.4941C38.4483 33.885 38.547 34.42 38.9379 34.6892C39.3288 34.9583 39.8637 34.8595 40.133 34.4688C42.6628 30.7943 44 26.4828 44 22C44 9.83288 34.1703 0 22 0Z" fill="black"/>
</svg>
