<svg width="49" height="49" viewBox="0 0 49 49" fill="none" xmlns="http://www.w3.org/2000/svg">
<path d="M43.524 13.8676C43.844 13.8676 44.1552 13.7419 44.3911 13.5061L48.6392 9.25816C48.9418 8.95535 49.0645 8.52565 48.9674 8.10858C48.8704 7.69151 48.5703 7.36028 48.1649 7.22247L45.4688 6.30573L46.3683 5.40575C46.739 5.03509 46.9431 4.54242 46.9431 4.01873C46.9431 3.49495 46.739 3.00228 46.3688 2.6321C45.9984 2.26106 45.5056 2.05674 44.9811 2.05683C44.4568 2.05683 43.9639 2.26116 43.5944 2.63152L42.6942 3.53122L41.7776 0.83519C41.6399 0.429794 41.3085 0.129671 40.8915 0.0325329C40.4741 -0.0644137 40.0446 0.0582769 39.7417 0.360984L35.4938 4.60883C35.1599 4.94284 35.0468 5.42814 35.1989 5.87536L35.8627 7.82759C32.6223 5.60022 28.7953 4.39389 24.8598 4.39389C13.9621 4.39389 5.09625 13.4658 5.09625 24.6168C5.09625 26.8267 5.44384 28.993 6.12821 31.0676C2.55985 32.3464 0 35.7619 0 39.7646C0 44.8569 4.14296 48.9999 9.23529 48.9999C10.9335 48.9999 12.5946 48.5347 14.0388 47.6548C14.3773 47.4485 14.4845 47.0068 14.2782 46.6683C14.0721 46.3298 13.6302 46.2226 13.2918 46.4289C12.0727 47.1717 10.67 47.5644 9.23519 47.5644C4.93442 47.5644 1.43544 44.0654 1.43544 39.7647C1.43544 35.4639 4.93442 31.9649 9.23519 31.9649C13.536 31.9649 17.0349 35.4639 17.0349 39.7647C17.0349 41.4247 16.5208 43.0088 15.5483 44.3457C15.315 44.6663 15.3859 45.1152 15.7064 45.3484C16.0269 45.5817 16.4758 45.5108 16.7091 45.1902C17.1041 44.6471 17.4337 44.0691 17.6985 43.4655C19.9803 44.3773 22.3853 44.8407 24.8596 44.8407C35.7566 44.8407 44.6221 35.7683 44.6221 24.6169C44.6221 20.4853 43.3863 16.4812 41.1057 13.1148L43.1244 13.8012C43.2559 13.8457 43.3907 13.8676 43.524 13.8676ZM44.6097 3.64616C44.7087 3.54692 44.8406 3.49237 44.9811 3.49237C45.1217 3.49237 45.2536 3.54701 45.3531 3.64674C45.4526 3.74627 45.5075 3.87834 45.5075 4.01873C45.5075 4.15903 45.4526 4.2912 45.353 4.39082L43.9539 5.79066L43.3981 5.60165L43.2092 5.04591L44.6097 3.64616ZM25.6552 24.0896C25.4497 24.2947 25.115 24.2949 24.9103 24.0905C24.705 23.8849 24.705 23.5503 24.9098 23.3451L37.0208 11.2341L37.0657 11.3662C37.1559 11.6314 37.3682 11.8437 37.6339 11.9342L37.7657 11.9791L25.6552 24.0896ZM23.8952 25.1056C24.2775 25.4873 24.7797 25.6781 25.282 25.6781C25.7844 25.6781 26.287 25.4871 26.6698 25.1051L29.0113 22.7636C29.2245 23.3148 29.3357 23.9039 29.3357 24.5038C29.3357 27.1635 27.1719 29.3272 24.5123 29.3272C21.8532 29.3272 19.6898 27.1635 19.6898 24.5038C19.6898 21.8448 21.8531 19.6814 24.5123 19.6814C25.103 19.6814 25.6836 19.7894 26.2282 19.9966L23.8942 22.3306C23.1309 23.0954 23.1309 24.3398 23.8952 25.1056ZM27.316 18.9088C26.4494 18.4742 25.4911 18.2458 24.5123 18.2458C21.0616 18.2458 18.2543 21.0531 18.2543 24.5037C18.2543 27.955 21.0616 30.7627 24.5123 30.7627C27.9635 30.7627 30.7712 27.955 30.7712 24.5037C30.7712 23.5156 30.5389 22.5497 30.0972 21.6777L32.4211 19.3537C33.4251 20.885 33.9524 22.6495 33.9524 24.5037C33.9524 29.709 29.7175 33.9438 24.5123 33.9438C19.307 33.9438 15.0722 29.709 15.0722 24.5037C15.0722 19.2985 19.307 15.0637 24.5123 15.0637C26.3588 15.0637 28.1164 15.5865 29.6428 16.582L27.316 18.9088ZM12.647 31.1826C11.6129 29.1681 11.066 26.9044 11.066 24.6168C11.066 21.2567 12.2405 17.9973 14.3736 15.4392C14.6274 15.1348 14.5864 14.6821 14.2819 14.4283C13.9774 14.1744 13.5248 14.2154 13.271 14.52C10.9235 17.3355 9.63054 20.9214 9.63054 24.6169C9.63054 26.6976 10.0426 28.7612 10.8289 30.6674C10.3111 30.5769 9.77869 30.5294 9.23529 30.5294C8.64768 30.5294 8.07298 30.5852 7.51552 30.6906C6.86311 28.7392 6.53169 26.6993 6.53169 24.6169C6.53169 14.2575 14.7536 5.82952 24.8597 5.82952C29.0168 5.82952 33.0447 7.28391 36.2857 9.93917L34.0343 12.1906C31.3995 10.1534 28.1669 9.03842 24.8596 9.03842C21.5765 9.03842 18.4479 10.0949 15.8118 12.0935C15.4959 12.3331 15.434 12.7833 15.6735 13.0992C15.9129 13.4149 16.3631 13.477 16.6791 13.2375C19.0636 11.4295 21.8924 10.474 24.8597 10.474C27.7882 10.474 30.6528 11.4429 33.0096 13.2153L30.6759 15.549C28.8596 14.2916 26.7424 13.6283 24.5123 13.6283C18.5155 13.6283 13.6366 18.5071 13.6366 24.5039C13.6366 30.5008 18.5155 35.3796 24.5123 35.3796C30.5091 35.3796 35.3879 30.5008 35.3879 24.5039C35.3879 22.2661 34.7199 20.1424 33.4538 18.3213L35.7825 15.9926C37.6379 18.4587 38.6523 21.491 38.6523 24.617C38.6523 32.416 32.465 38.7608 24.8597 38.7608C22.4515 38.7608 20.0902 38.1132 18.0116 36.889C17.1569 34.2868 15.1755 32.1914 12.647 31.1826ZM24.8597 43.4051C22.5472 43.4051 20.3002 42.9681 18.1701 42.108C18.3678 41.3507 18.4706 40.5653 18.4706 39.7646C18.4706 39.4146 18.4503 39.0693 18.4122 38.7294C20.4216 39.6923 22.6225 40.1962 24.8597 40.1962C33.2565 40.1962 40.0879 33.2073 40.0879 24.6168C40.0879 21.1109 38.9272 17.7104 36.8071 14.9679L39.0428 12.7322C41.72 16.0848 43.1867 20.2747 43.1867 24.6168C43.1867 34.9767 34.9653 43.4051 24.8597 43.4051ZM38.3413 10.6585L36.5989 5.5338L40.5242 1.60847L42.1226 6.30956C42.2129 6.57495 42.4254 6.78721 42.6907 6.87737L47.3914 8.47569L43.4661 12.401L38.3413 10.6585Z" fill="black"/>
<path d="M11.3637 36.1105L7.89437 39.5798L7.06769 38.7532C6.69224 38.3779 6.18885 38.1743 5.66238 38.1787C5.13171 38.1836 4.63635 38.3968 4.2678 38.7791C3.5305 39.5437 3.5551 40.7899 4.32225 41.5569L5.95294 43.1877C6.44131 43.676 7.07219 43.9664 7.72957 44.0056C7.78335 44.0087 7.83704 44.0104 7.89064 44.0104C8.6064 44.0104 9.29623 43.7271 9.80384 43.2196L14.1674 38.856C14.5428 38.4806 14.7468 37.9815 14.7419 37.4506C14.737 36.9198 14.5238 36.4245 14.1414 36.0557C13.377 35.3188 12.131 35.3433 11.3637 36.1105ZM13.1452 37.0891C13.2479 37.1882 13.3053 37.3212 13.3067 37.4636C13.308 37.6061 13.2532 37.7401 13.1525 37.8408L8.789 42.2044C8.52955 42.4636 8.18263 42.5943 7.81503 42.5725C7.50859 42.5543 7.2078 42.4122 6.96816 42.1726L5.33747 40.5418C5.12358 40.3279 5.10702 39.9771 5.3013 39.7755C5.40035 39.6727 5.53338 39.6155 5.67559 39.6142H5.68057C5.82125 39.6142 5.95323 39.6688 6.05285 39.7683L7.25153 40.9671C7.60611 41.3216 8.18272 41.3216 8.5374 40.9671L12.3789 37.1256C12.5928 36.9116 12.9437 36.895 13.1452 37.0891Z" fill="#FF5E00"/>
</svg>
